<svg width="500" height="500" viewBox="0 0 500 500" fill="none" xmlns="http://www.w3.org/2000/svg">
<g clip-path="url(#clip0_3742_2)">
<rect width="500" height="500" fill="white"/>
<mask id="mask0_3742_2" style="mask-type:luminance" maskUnits="userSpaceOnUse" x="0" y="0" width="500" height="500">
<path d="M500 0H0V500H500V0Z" fill="white"/>
</mask>
<g mask="url(#mask0_3742_2)">
<path fill-rule="evenodd" clip-rule="evenodd" d="M91.6668 105.209H147.917C156.137 105.136 164.061 108.275 170 113.959C182.917 125.625 191.667 131.875 197.083 131.875C202.083 131.875 174.583 155.209 114.167 201.875C109.109 205.766 103.063 208.163 96.7134 208.795C90.3639 209.426 83.9643 208.267 78.2393 205.448C72.5147 202.629 67.6939 198.263 64.323 192.845C60.9522 187.427 59.1659 181.173 59.1668 174.792V138.125C59.1293 133.827 59.9414 129.564 61.5564 125.581C63.1714 121.598 65.5572 117.973 68.5772 114.914C71.5972 111.855 75.1914 109.423 79.1539 107.758C83.1164 106.092 87.3684 105.226 91.6668 105.209Z" fill="#1AA6F7"/>
<path fill-rule="evenodd" clip-rule="evenodd" d="M163.75 131.458H408.333C416.95 131.47 425.208 134.897 431.304 140.99C437.396 147.082 440.821 155.342 440.833 163.958V237.292C440.821 245.908 437.396 254.168 431.304 260.261C425.208 266.353 416.95 269.781 408.333 269.792H163.75C155.134 269.781 146.874 266.353 140.781 260.261C134.689 254.168 131.261 245.908 131.25 237.292V163.958C131.332 155.364 134.782 147.145 140.859 141.068C146.937 134.99 155.156 131.54 163.75 131.458Z" fill="#1AA6F7"/>
<path fill-rule="evenodd" clip-rule="evenodd" d="M87.0833 151.458H412.917C413.956 151.457 414.986 151.662 415.947 152.059C416.908 152.457 417.779 153.04 418.517 153.775C419.25 154.51 419.833 155.384 420.233 156.345C420.629 157.305 420.833 158.335 420.833 159.375V281.458C420.833 282.498 420.629 283.528 420.233 284.489C419.833 285.45 419.25 286.323 418.517 287.058C417.779 287.793 416.908 288.376 415.947 288.774C414.986 289.171 413.956 289.375 412.917 289.375H87.0833C86.0433 289.375 85.0138 289.171 84.0529 288.774C83.0921 288.376 82.2192 287.793 81.4838 287.058C80.7484 286.323 80.1654 285.45 79.7679 284.489C79.37 283.528 79.1658 282.498 79.1667 281.458V159.375C79.0954 158.317 79.2517 157.256 79.6242 156.263C79.9971 155.27 80.5779 154.369 81.3275 153.619C82.0775 152.869 82.9788 152.288 83.9717 151.916C84.9642 151.543 86.0254 151.387 87.0833 151.458Z" fill="white"/>
<path fill-rule="evenodd" clip-rule="evenodd" d="M75.4167 164.375H424.583C428.892 164.38 433.021 166.094 436.067 169.14C439.113 172.187 440.829 176.317 440.833 180.625V362.291C440.821 370.908 437.396 379.168 431.3 385.26C425.208 391.353 416.95 394.78 408.333 394.792H91.6667C83.0505 394.78 74.7905 391.353 68.6976 385.26C62.6051 379.168 59.1776 370.908 59.1667 362.291V180.625C59.1717 176.317 60.8855 172.186 63.9317 169.14C66.978 166.094 71.1084 164.38 75.4167 164.375Z" fill="url(#paint0_linear_3742_2)"/>
</g>
<path d="M245.157 237.484C255.568 246.699 263.953 256.578 269.351 265.888C278.627 249.302 284.819 229.597 284.898 217.046C284.898 216.959 284.898 216.88 284.898 216.801C284.898 198.232 266.372 191 250.415 191C234.457 191 215.931 198.232 215.931 216.801C215.931 217.055 215.931 217.395 215.931 217.806C224.823 221.754 235.365 228.82 245.157 237.484Z" fill="#FA2921"/>
<path d="M250.415 191.5C258.33 191.5 266.851 193.295 273.376 197.361C279.88 201.414 284.398 207.717 284.398 216.802V217.043C284.321 229.288 278.352 248.496 269.336 264.878C263.895 255.735 255.647 246.102 245.488 237.11C235.778 228.518 225.318 221.481 216.431 217.482V216.802C216.431 207.717 220.949 201.414 227.453 197.361C233.978 193.295 242.5 191.5 250.415 191.5Z" stroke="white" stroke-opacity="0.2"/>
<path d="M188.366 288.126C194.873 280.885 204.856 273.042 216.115 266.413C228.098 259.364 240.082 254.438 250.607 252.176C237.697 238.236 220.875 226.252 208.961 222.295C208.874 222.269 208.804 222.243 208.725 222.217C191.065 216.478 178.461 231.868 173.526 247.04C168.591 262.211 169.744 282.073 187.405 287.812C187.658 287.899 187.973 288.004 188.366 288.126Z" fill="#ED79B5"/>
<path d="M186.676 227.17C192.54 222.236 199.929 219.884 208.567 222.69V222.691C208.621 222.709 208.713 222.741 208.804 222.769V222.77C220.427 226.63 236.846 238.248 249.641 251.878C239.263 254.232 227.554 259.104 215.861 265.982C204.696 272.557 194.765 280.33 188.212 287.551C187.961 287.471 187.749 287.402 187.568 287.339L187.56 287.337L186.761 287.063C178.634 284.137 174.264 278.05 172.478 270.843C170.627 263.38 171.553 254.719 174.001 247.194C176.449 239.669 180.792 232.119 186.676 227.17Z" stroke="white" stroke-opacity="0.2"/>
<path d="M327.478 246.786C322.543 231.606 309.948 216.225 292.278 221.963C292.034 222.042 291.711 222.147 291.326 222.269C290.313 231.947 286.854 244.166 281.64 256.15C276.094 268.902 269.29 279.933 262.11 287.934C280.749 291.629 301.406 291.428 313.363 287.628C313.45 287.602 313.529 287.576 313.599 287.55C331.26 281.82 332.404 261.967 327.478 246.786Z" fill="#FFB400"/>
<path d="M292.433 222.439C301.078 219.632 308.468 221.98 314.332 226.913C320.215 231.861 324.555 239.411 327.002 246.941C329.446 254.471 330.372 263.13 328.523 270.591C326.68 278.029 322.085 284.271 313.445 287.074L313.423 287.082C313.366 287.103 313.298 287.125 313.219 287.149L313.211 287.152C301.545 290.859 281.43 291.118 263.066 287.607C270.073 279.617 276.686 268.792 282.098 256.349C287.269 244.466 290.724 232.335 291.787 222.646C292.038 222.565 292.256 222.495 292.431 222.439H292.433Z" stroke="white" stroke-opacity="0.2"/>
<path d="M234.658 302.966C231.653 289.393 230.675 276.466 231.776 265.766C214.525 273.732 197.93 286.03 190.488 296.144C190.436 296.214 190.392 296.284 190.349 296.345C179.431 311.368 190.174 328.112 203.083 337.493C215.993 346.874 235.234 351.913 246.152 336.89C246.301 336.681 246.502 336.41 246.746 336.078C241.864 327.649 237.488 315.727 234.658 302.966Z" fill="#1E83F7"/>
<path d="M231.193 266.591C230.226 277.181 231.238 289.829 234.17 303.074C236.976 315.728 241.303 327.577 246.151 336.044L245.748 336.596C240.406 343.946 233.045 346.389 225.4 345.844C217.73 345.298 209.781 341.741 203.378 337.088C196.975 332.436 191.134 325.973 188.244 318.847C185.363 311.744 185.411 303.989 190.753 296.639L190.756 296.636C190.833 296.527 190.83 296.522 190.888 296.444L190.891 296.441C198.152 286.573 214.273 274.544 231.193 266.591Z" stroke="white" stroke-opacity="0.2"/>
<path d="M310.367 295.376C300.847 297.411 288.165 297.891 275.15 296.633C261.315 295.297 248.72 292.24 238.885 287.882C241.13 306.748 247.698 326.33 255.018 336.532C255.07 336.602 255.114 336.672 255.157 336.733C266.075 351.756 285.308 346.716 298.227 337.336C311.136 327.955 321.879 311.22 310.961 296.188C310.813 295.978 310.612 295.699 310.367 295.376Z" fill="#18C249"/>
<path d="M239.49 288.689C249.262 292.887 261.602 295.828 275.102 297.132V297.131C288.01 298.378 300.609 297.922 310.156 295.93C310.313 296.142 310.447 296.327 310.553 296.477L310.557 296.482C315.899 303.837 315.946 311.591 313.066 318.693C310.176 325.818 304.336 332.279 297.933 336.931C291.526 341.584 283.575 345.141 275.907 345.687C268.502 346.215 261.364 343.939 256.069 337.114L255.562 336.439C255.546 336.416 255.469 336.302 255.423 336.241H255.424C248.283 326.288 241.824 307.238 239.49 288.689Z" stroke="white" stroke-opacity="0.2"/>
</g>
<defs>
<linearGradient id="paint0_linear_3742_2" x1="249.967" y1="394.83" x2="249.967" y2="164.423" gradientUnits="userSpaceOnUse">
<stop stop-color="#1D77F2"/>
<stop offset="1" stop-color="#18C1FA"/>
</linearGradient>
<clipPath id="clip0_3742_2">
<rect width="500" height="500" fill="white"/>
</clipPath>
</defs>
</svg>
